<?xml version="1.0" encoding="UTF-8" standalone="no"?>
<svg
   xmlns:dc="http://purl.org/dc/elements/1.1/"
   xmlns:cc="http://creativecommons.org/ns#"
   xmlns:rdf="http://www.w3.org/1999/02/22-rdf-syntax-ns#"
   xmlns:svg="http://www.w3.org/2000/svg"
   xmlns="http://www.w3.org/2000/svg"
   xmlns:xlink="http://www.w3.org/1999/xlink"
   xmlns:sodipodi="http://sodipodi.sourceforge.net/DTD/sodipodi-0.dtd"
   xmlns:inkscape="http://www.inkscape.org/namespaces/inkscape"
   inkscape:version="1.0 (4035a4fb49, 2020-05-01)"
   sodipodi:docname="folder-unlocked.svg"
   width="32"
   version="1.1"
   height="32"
   viewBox="0 0 32 32"
   id="svg2">
  <sodipodi:namedview
     inkscape:document-rotation="0"
     inkscape:current-layer="svg2"
     inkscape:window-maximized="1"
     inkscape:window-y="0"
     inkscape:window-x="0"
     inkscape:cy="16"
     inkscape:cx="-32.677966"
     inkscape:zoom="8.9342207"
     showgrid="false"
     id="namedview18"
     inkscape:window-height="1028"
     inkscape:window-width="1920"
     inkscape:pageshadow="2"
     inkscape:pageopacity="0"
     guidetolerance="10"
     gridtolerance="10"
     objecttolerance="10"
     borderopacity="1"
     bordercolor="#666666"
     pagecolor="#ffffff" />
  <defs
     id="defs5455">
    <linearGradient
       id="linearGradient835"
       inkscape:collect="always">
      <stop
         id="stop831"
         offset="0"
         style="stop-color:#00b8b8;stop-opacity:1;" />
      <stop
         id="stop833"
         offset="1"
         style="stop-color:#00b8b8;stop-opacity:1" />
    </linearGradient>
    <linearGradient
       id="linearGradient4172-5">
      <stop
         style="stop-color:#00b8b8;stop-opacity:1"
         id="stop4174-6" />
      <stop
         offset="1"
         style="stop-color:#006666;stop-opacity:1"
         id="stop4176-6" />
    </linearGradient>
    <linearGradient
       x1="1.0847458"
       id="linearGradient4342"
       xlink:href="#linearGradient4172-5"
       y1="17.61017"
       y2="17.762712"
       gradientUnits="userSpaceOnUse"
       x2="30.915255" />
    <linearGradient
       gradientUnits="userSpaceOnUse"
       y2="522.798"
       x2="414.57144"
       y1="522.798"
       x1="386.57144"
       id="linearGradient837"
       xlink:href="#linearGradient835"
       inkscape:collect="always" />
  </defs>
  <metadata
     id="metadata5458">
    <rdf:RDF>
      <cc:Work
         rdf:about="">
        <dc:format>image/svg+xml</dc:format>
        <dc:type
           rdf:resource="http://purl.org/dc/dcmitype/StillImage" />
        <dc:title />
      </cc:Work>
    </rdf:RDF>
  </metadata>
  <g
     id="layer1"
     transform="matrix(1 0 0 1 -384.57143 -515.798)">
    <g
       id="layer1-1"
       transform="matrix(1 0 0 1 -0.000006 0)">
      <path
         style="fill:url(#linearGradient837);fill-rule:evenodd;fill-opacity:1"
         id="path4308"
         d="m 386.57144,518.798 0,7 0,1 28,0 0,-6 -14.00001,0 -2,-2 z" />
      <path
         style="fill-opacity:0.235294;fill-rule:evenodd"
         id="path4306"
         d="m 397.57143,523.798 -1.99999,1 -9,0 0,1 6.99999,0 3,0 z" />
      <path
         style="fill:url(#linearGradient4342)"
         id="rect4294"
         d="m 13,8 -2,2 -9,0 -1,0 0,19 11,0 1,0 18,0 0,-21 -18,0 z"
         transform="matrix(1 0 0 1 384.57143 515.798)" />
      <path
         style="fill:#ffffff;fill-opacity:0.235294;fill-rule:evenodd"
         id="path4304"
         d="m 397.57143,523.798 -2,2 -10,0 0,1 11,0 z" />
      <path
         style="fill:#ffffff;fill-opacity:0.235294;fill-rule:evenodd"
         id="path4310"
         d="m 398.57143,518.798 1,3 15.00001,0 0,-1 -14.00001,0 z" />
      <rect
         width="30"
         x="385.57144"
         y="543.79797"
         height="1"
         style="fill-opacity:0.235294"
         id="rect4292" />
    </g>
    <path
       style="fill:#001e1e;fill-opacity:1"
       d="M 16 13 C 14.337997 13 13 14.337997 13 16 L 14 16 C 14 14.892 14.892 14 16 14 C 17.108 14 18 14.892 18 16 L 18 18 L 14 18 L 13 18 L 12 18 L 12 23 L 20 23 L 20 18 L 19 18 L 19 16 C 19 14.337997 17.662003 13 16 13 z M 13 19 L 14 19 L 18 19 L 19 19 L 19 22 L 13 22 L 13 19 z "
       transform="translate(384.57143,515.798)"
       id="rect4184" />
  </g>
</svg>
