<?xml version="1.0" encoding="UTF-8" standalone="no"?>
<svg
   viewBox="0 0 32 32"
   version="1.1"
   id="svg6"
   sodipodi:docname="system-log-out-rtl.svg"
   inkscape:version="1.1.1 (3bf5ae0d25, 2021-09-20)"
   xmlns:inkscape="http://www.inkscape.org/namespaces/inkscape"
   xmlns:sodipodi="http://sodipodi.sourceforge.net/DTD/sodipodi-0.dtd"
   xmlns="http://www.w3.org/2000/svg"
   xmlns:svg="http://www.w3.org/2000/svg"
   xmlns:rdf="http://www.w3.org/1999/02/22-rdf-syntax-ns#"
   xmlns:cc="http://creativecommons.org/ns#"
   xmlns:dc="http://purl.org/dc/elements/1.1/">
  <metadata
     id="metadata10">
    <rdf:RDF>
      <cc:Work
         rdf:about="">
        <dc:format>image/svg+xml</dc:format>
        <dc:type
           rdf:resource="http://purl.org/dc/dcmitype/StillImage" />
      </cc:Work>
    </rdf:RDF>
  </metadata>
  <sodipodi:namedview
     pagecolor="#ffffff"
     bordercolor="#666666"
     borderopacity="1"
     objecttolerance="10"
     gridtolerance="10"
     guidetolerance="10"
     inkscape:pageopacity="0"
     inkscape:pageshadow="2"
     inkscape:window-width="1920"
     inkscape:window-height="1006"
     id="namedview8"
     showgrid="false"
     inkscape:zoom="21.493729"
     inkscape:cx="13.724933"
     inkscape:cy="14.376286"
     inkscape:window-x="0"
     inkscape:window-y="0"
     inkscape:window-maximized="1"
     inkscape:current-layer="svg6"
     inkscape:pagecheckerboard="0" />
  <defs
     id="defs3051">
    <style
       type="text/css"
       id="current-color-scheme">
      .ColorScheme-Text {
        color:#eff0f1;
      }
      </style>
  </defs>
  <path
     style="color:#eff0f1;fill:#008080;fill-opacity:1;stroke:none"
     d="M 16,28 C 22.627417,28 28,22.627417 28,16 28,9.3725828 22.627417,3.9999998 16,3.9999998 9.3725828,3.9999998 3.9999998,9.3725828 3.9999998,16 c 0,6.627417 5.372583,12 12.0000002,12 z m 0,-1.4 C 9.9248678,26.6 5.3999998,22.075132 5.3999998,16 5.3999998,9.9248678 9.9248678,5.3999998 16,5.3999998 c 6.075132,0 10.6,4.524868 10.6,10.6000002 0,6.075132 -4.524868,10.6 -10.6,10.6 z M 12.697374,24.19305 21.2,16 12.730469,7.9999998 11.860424,8.9674238 19.239,16 11.8,23.292969 Z"
     class="ColorScheme-Text"
     id="path4"
     inkscape:connector-curvature="0"
     sodipodi:nodetypes="ssssssssssccccccc" />
</svg>
