<?xml version="1.0" encoding="UTF-8" standalone="no"?>
<svg
   viewBox="0 0 32 32"
   version="1.1"
   id="svg6"
   sodipodi:docname="system-log-out-rtl.svg"
   inkscape:version="1.1.1 (3bf5ae0d25, 2021-09-20)"
   xmlns:inkscape="http://www.inkscape.org/namespaces/inkscape"
   xmlns:sodipodi="http://sodipodi.sourceforge.net/DTD/sodipodi-0.dtd"
   xmlns:xlink="http://www.w3.org/1999/xlink"
   xmlns="http://www.w3.org/2000/svg"
   xmlns:svg="http://www.w3.org/2000/svg">
  <sodipodi:namedview
     id="namedview8"
     pagecolor="#ffffff"
     bordercolor="#666666"
     borderopacity="1.0"
     inkscape:pageshadow="2"
     inkscape:pageopacity="0.0"
     inkscape:pagecheckerboard="0"
     showgrid="false"
     inkscape:zoom="9.71875"
     inkscape:cx="-5.5562701"
     inkscape:cy="9.9807074"
     inkscape:window-width="1920"
     inkscape:window-height="1006"
     inkscape:window-x="0"
     inkscape:window-y="0"
     inkscape:window-maximized="1"
     inkscape:current-layer="svg6" />
  <defs
     id="defs3051">
    <style
       type="text/css"
       id="current-color-scheme">
      .ColorScheme-Text {
        color:#eff0f1;
      }
      </style>
    <radialGradient
       gradientTransform="matrix(-1.3636372,0,0,-1.3636372,73.272775,32.363621)"
       inkscape:collect="always"
       xlink:href="#linearGradient892"
       id="radialGradient894"
       cx="42"
       cy="12"
       fx="42"
       fy="12"
       r="11"
       gradientUnits="userSpaceOnUse" />
    <linearGradient
       inkscape:collect="always"
       id="linearGradient892">
      <stop
         style="stop-color:#008080;stop-opacity:1;"
         offset="0"
         id="stop888" />
      <stop
         style="stop-color:#008080;stop-opacity:0;"
         offset="1"
         id="stop890" />
    </linearGradient>
  </defs>
  <path
     inkscape:connector-curvature="0"
     d="M 26.90911,31 H 5.0909115 c -2.72727,0 -4.090911,-1.363619 -4.090911,-4.090911 V 5.0909115 c -1e-6,-2.727292 1.363641,-4.090912 4.090911,-4.090912 H 26.90911 c 2.72727,0 4.090911,1.36362 4.090911,4.090912 V 26.909089 C 31.000021,29.636381 29.63638,31 26.90911,31 Z M 10.282156,23.479681 c 3.37843,2.594063 8.088062,2.594063 11.466494,0 4.116407,-3.160683 4.900182,-9.09762 1.74155,-13.216723 C 20.331568,6.1438535 14.398564,5.3595845 10.282156,8.5202675 l 1.564313,2.0434205 c 3.014606,-2.3147225 7.29616,-1.7519675 9.609351,1.264614 2.31319,3.01658 1.743123,7.293238 -1.271488,9.607959 -2.465541,1.893132 -5.872318,1.900811 -8.337863,0.0052 l -1.564313,2.03569 z M 9.7157925,19.94668 c 0.14936,-0.08968 0.225329,-1.292238 0.26156,-2.661786 H 14.29446 V 14.715106 H 9.9773525 c -0.03608,-1.369547 -0.1122,-2.572159 -0.26156,-2.661837 -0.394428,-0.236564 -6.57297,3.473114 -6.57297,3.946706 0,0.473643 6.178542,4.183526 6.57297,3.946705 z"
     style="color:#000000;display:inline;overflow:visible;visibility:visible;fill:url(#radialGradient894);fill-opacity:1;fill-rule:evenodd;stroke:none;stroke-width:12.2727;marker:none;enable-background:accumulate"
     id="rect4747-6-8" />
</svg>
